<svg width="100%" height="100%" viewBox="0 0 807 465" version="1.1" xmlns="http://www.w3.org/2000/svg" xmlns:xlink="http://www.w3.org/1999/xlink" xml:space="preserve" xmlns:serif="http://www.serif.com/" style="fill-rule:evenodd;clip-rule:evenodd;stroke-linejoin:round;stroke-miterlimit:2;"><rect id="Artboard3.1" x="-0" y="0" width="806.439" height="464.359" style="fill:none;"/><g><g id="map"><path d="M731.419,255.362c5.558,5.892 5.294,15.18 -0.594,20.728c-3.42,3.23 -7.984,4.482 -12.298,3.82l-10.027,5.415l1.596,-9.824c-0.005,-0.003 -0.008,-0.003 -0.008,-0.006c-5.552,-5.893 -5.286,-15.172 0.607,-20.735c5.89,-5.556 15.169,-5.28 20.724,0.602Z" style="fill:#fff;fill-rule:nonzero;"/><path d="M512.513,15.91l21.064,0c8.223,0 14.886,6.862 14.886,15.319c0,6.16 -3.539,11.456 -8.628,13.891l2.518,15.722l-14.666,-14.286l-15.174,-0c-8.205,-0 -14.87,-6.865 -14.87,-15.327c0,-8.457 6.665,-15.319 14.87,-15.319Z" style="fill:#fff;fill-rule:nonzero;"/><path d="M580.201,179.206l-13.562,-10.586c0.503,-3.136 0.37,-6.411 -0.532,-9.656c-3.43,-12.332 -16.452,-19.484 -29.068,-15.972c-12.612,3.51 -20.065,16.354 -16.635,28.686c3.43,12.326 16.451,19.486 29.062,15.975c5.226,-1.455 9.548,-4.526 12.592,-8.485l18.143,0.038Z" style="fill:#fff;fill-rule:nonzero;"/><path d="M619.307,188.444l-34.948,-0c-3.019,-0 -5.467,3.423 -5.467,7.639l-0,24.683c-0,4.229 2.448,7.641 5.467,7.641l22.815,0l13.49,11.452l-2.936,-11.452l1.579,0c3.016,0 5.465,-3.412 5.465,-7.641l0,-24.683c0,-4.216 -2.449,-7.639 -5.465,-7.639Z" style="fill:#fff;fill-rule:nonzero;"/><path d="M662.307,417.969c-10.597,-2.427 -21.037,3.702 -23.325,13.692c-0.533,2.342 -0.568,4.691 -0.18,6.945l-7.01,13.528l13.644,-2.23c2.393,1.993 5.307,3.481 8.594,4.234c10.598,2.427 21.04,-3.704 23.328,-13.695c2.287,-9.987 -4.451,-20.051 -15.051,-22.474Z" style="fill:#fff;fill-rule:nonzero;"/><path d="M476.447,88.752c-14.309,-0 -25.909,8.834 -25.909,19.734c-0,2.552 0.646,4.992 1.805,7.235l-5.023,15.694l16.858,-5.547c3.655,1.498 7.827,2.347 12.269,2.347c14.315,-0 25.92,-8.834 25.92,-19.729c-0,-10.9 -11.605,-19.734 -25.92,-19.734Z" style="fill:#fff;fill-rule:nonzero;"/><path d="M703.967,118.345c-11.347,0 -20.546,8.676 -20.546,19.372c-0,2.51 0.512,4.905 1.434,7.108l-3.985,15.403l13.368,-5.446c2.895,1.472 6.209,2.307 9.729,2.307c11.355,-0 20.554,-8.671 20.554,-19.372c0,-10.696 -9.199,-19.372 -20.554,-19.372Z" style="fill:#fff;fill-rule:nonzero;"/><path d="M782.165,167.606c-11.347,-0 -20.546,8.67 -20.546,19.368c-0,2.512 0.512,4.906 1.432,7.108l-3.985,15.404l13.37,-5.445c2.897,1.47 6.209,2.306 9.729,2.306c11.355,0 20.554,-8.673 20.554,-19.373c0,-10.698 -9.199,-19.368 -20.554,-19.368Z" style="fill:#fff;fill-rule:nonzero;"/><path d="M616.421,106.734l-31.46,0c-2.71,0 -4.915,3.182 -4.915,7.126l0,23.017c0,3.932 2.205,7.119 4.915,7.119l20.526,0l12.158,10.69l-2.643,-10.69l1.419,0c2.719,0 4.92,-3.187 4.92,-7.119l-0,-23.017c-0,-3.944 -2.201,-7.126 -4.92,-7.126Z" style="fill:#fff;fill-rule:nonzero;"/><path d="M677.252,199.253l-33.511,-0c-2.888,-0 -5.235,3.39 -5.235,7.59l-0,24.518c-0,4.19 2.347,7.583 5.235,7.583l21.863,-0l14.361,6.369l-4.225,-6.369l1.512,-0c2.894,-0 5.241,-3.393 5.241,-7.583l-0,-24.518c-0,-4.2 -2.347,-7.59 -5.241,-7.59Z" style="fill:#fff;fill-rule:nonzero;"/><path d="M658.551,280.262l-31.735,0c-2.734,0 -4.957,3.21 -4.957,7.19l0,23.214c0,3.967 2.223,7.18 4.957,7.18l20.703,0l12.265,10.78l-2.667,-10.78l1.434,0c2.74,0 4.96,-3.213 4.96,-7.18l-0,-23.214c-0,-3.98 -2.22,-7.19 -4.96,-7.19Z" style="fill:#fff;fill-rule:nonzero;"/><path d="M753.637,151.821l-31.735,-0c-2.734,-0 -4.955,3.209 -4.955,7.187l-0,23.217c-0,3.965 2.221,7.181 4.955,7.181l20.704,-0l12.264,10.779l-2.665,-10.779l1.432,-0c2.74,-0 4.961,-3.216 4.961,-7.181l0,-23.217c0,-3.978 -2.221,-7.187 -4.961,-7.187Z" style="fill:#fff;fill-rule:nonzero;"/><path d="M628.803,323.292c-15.453,0 -27.984,9.454 -27.984,21.129c0,2.433 0.551,4.772 1.556,6.949l-5.025,18.185l17.67,-6.746c4.068,1.745 8.769,2.743 13.783,2.743c15.462,0 27.983,-9.455 27.983,-21.131c0,-11.675 -12.521,-21.129 -27.983,-21.129Z" style="fill:#fff;fill-rule:nonzero;"/><path d="M653.536,109.055c-14.75,-0 -26.709,9.024 -26.709,20.168c0,2.322 0.527,4.553 1.485,6.631l-4.797,17.355l16.865,-6.435c3.883,1.664 8.369,2.615 13.156,2.615c14.757,-0 26.708,-9.023 26.708,-20.166c-0,-11.144 -11.951,-20.168 -26.708,-20.168Z" style="fill:#fff;fill-rule:nonzero;"/><path d="M450.132,149.009c-5.089,13.403 1.655,28.399 15.039,33.478c7.787,2.956 16.092,1.904 22.693,-2.104l30.479,3.102l-19.687,-16.033c0.004,-0.005 0.007,-0.008 0.01,-0.01c5.073,-13.405 -1.66,-28.381 -15.064,-33.476c-13.401,-5.088 -28.378,1.662 -33.47,15.043Z" style="fill:#fff;fill-rule:nonzero;"/><path d="M473.122,69.675c0.695,12.254 11.198,21.628 23.438,20.935c7.12,-0.403 13.244,-4.124 17.007,-9.56l25.655,-2.96l-21.721,-10.913c0,-0.007 0,-0.01 0.003,-0.013c-0.706,-12.249 -11.193,-21.613 -23.45,-20.925c-12.254,0.693 -21.615,11.194 -20.932,23.436Z" style="fill:#fff;fill-rule:nonzero;"/><path d="M709.119,172.365c3.69,6.736 1.217,15.195 -5.514,18.876c-3.913,2.141 -8.398,2.198 -12.197,0.556l-11.81,3.892l5.129,-9.958c-0.005,-0.005 -0.006,-0.006 -0.006,-0.008c-3.68,-6.736 -1.212,-15.186 5.527,-18.877c6.735,-3.69 15.184,-1.207 18.871,5.519Z" style="fill:#fff;fill-rule:nonzero;"/><path d="M712.44,100.274c0.269,8.233 -6.185,15.132 -14.407,15.398c-4.78,0.16 -9.099,-1.954 -11.939,-5.363l-12.515,1.15l9.056,-10.184c-0.004,-0.008 -0.004,-0.011 -0.004,-0.013c-0.264,-8.225 6.182,-15.117 14.417,-15.392c8.23,-0.274 15.115,6.185 15.392,14.404Z" style="fill:#fff;fill-rule:nonzero;"/><path d="M544.42,195.664c-6.663,6.294 -6.962,16.805 -0.671,23.463c3.654,3.867 8.73,5.576 13.647,5.105l11.461,9.148l-1.647,-13.583c0.01,-0.002 0.011,-0.002 0.011,-0.003c6.65,-6.301 6.95,-16.797 0.655,-23.468c-6.295,-6.661 -16.8,-6.946 -23.456,-0.662Z" style="fill:#fff;fill-rule:nonzero;"/><path d="M769.562,226.008c4.034,7.498 1.225,16.85 -6.26,20.874c-4.355,2.345 -9.328,2.371 -13.521,0.52l-17.708,4.189l10.347,-10.967c-0.003,-0.004 -0.005,-0.004 -0.005,-0.005c-4.025,-7.498 -1.221,-16.842 6.278,-20.879c7.495,-4.035 16.837,-1.219 20.869,6.268Z" style="fill:#fff;fill-rule:nonzero;"/><path d="M694.246,388.452c4.968,5.859 4.247,14.642 -1.605,19.6c-3.402,2.887 -7.783,3.843 -11.835,2.996l-9.848,8.782l2.083,-13.378c-0.005,-0.003 -0.008,-0.003 -0.008,-0.005c-4.96,-5.86 -4.242,-14.632 1.618,-19.603c5.855,-4.968 14.63,-4.239 19.595,1.608Z" style="fill:#fff;fill-rule:nonzero;"/><path d="M580.232,163.649c-1.908,9.429 4.184,18.633 13.605,20.539c5.478,1.113 10.862,-0.484 14.8,-3.862l13.898,0.409l-8.156,-10.143c0.004,-0.008 0.007,-0.008 0.007,-0.01c1.903,-9.427 -4.187,-18.623 -13.621,-20.539c-9.429,-1.915 -18.615,4.19 -20.533,13.606Z" style="fill:#fff;fill-rule:nonzero;"/><path d="M664.915,256.59c-5.705,9.142 -2.919,21.188 6.216,26.887c5.309,3.313 11.587,3.747 17.043,1.754l15.463,4.348l-5.618,-12.313c0.005,-0.006 0.008,-0.005 0.006,-0.01c5.697,-9.141 2.913,-21.177 -6.23,-26.887c-9.139,-5.705 -21.173,-2.907 -26.88,6.221Z" style="fill:#fff;fill-rule:nonzero;"/><path d="M621.256,380.032c-4.689,10.15 -0.256,22.183 9.881,26.855c5.894,2.721 12.41,2.349 17.765,-0.406l14.752,5.052l-5.656,-14.525c0.003,-0.005 0.003,-0.011 0.005,-0.014c4.673,-10.147 0.249,-22.164 -9.902,-26.854c-10.152,-4.684 -22.161,-0.244 -26.845,9.892Z" style="fill:#fff;fill-rule:nonzero;"/><path d="M602.07,84.41c-1.654,8.646 4.017,16.999 12.652,18.644c5.022,0.961 9.931,-0.556 13.497,-3.681l12.683,6.661l-7.529,-15.623c0.001,-0.008 0.001,-0.01 0.001,-0.012c1.648,-8.644 -4.015,-16.985 -12.661,-18.642c-8.645,-1.654 -16.983,4.017 -18.643,12.653Z" style="fill:#fff;fill-rule:nonzero;"/><path d="M499.038,143.382c4.321,7.665 14.046,10.376 21.702,6.059c4.453,-2.512 7.223,-6.841 7.924,-11.53l10.546,-7.034l-12.402,-3.14c-0.002,-0.003 -0.003,-0.005 -0.002,-0.008c-4.33,-7.663 -14.045,-10.372 -21.712,-6.051c-7.668,4.323 -10.368,14.041 -6.056,21.704Z" style="fill:#fff;fill-rule:nonzero;"/><path d="M539.222,212.733l-11.957,-8.25l-0,-9.871c-0,-3.49 -2.266,-6.336 -5.053,-6.336l-32.288,-0c-2.784,-0 -5.05,2.846 -5.05,6.336l0,20.468c0,3.512 2.266,6.341 5.05,6.341l32.288,0c2.787,0 5.053,-2.829 5.053,-6.341l-0,-2.347l11.957,-0Z" style="fill:#fff;fill-rule:nonzero;"/><path d="M664.354,153.102l-22.244,0c-8.682,0 -15.72,7.249 -15.72,16.179c0,6.503 3.737,12.097 9.113,14.669l-2.66,16.602l15.486,-15.087l16.025,0c8.666,0 15.704,-7.248 15.704,-16.184c-0,-8.93 -7.038,-16.179 -15.704,-16.179Z" style="fill:#fff;fill-rule:nonzero;"/><path d="M726.539,196.339l-23.978,0c-9.362,0 -16.946,7.813 -16.946,17.438c-0,7.01 4.027,13.038 9.823,15.813l-2.869,17.897l16.697,-16.265l17.273,0c9.342,0 16.927,-7.812 16.927,-17.445c-0,-9.625 -7.585,-17.438 -16.927,-17.438Z" style="fill:#fff;fill-rule:nonzero;"/><path d="M695.416,344.551l-22.243,0c-8.683,0 -15.721,7.248 -15.721,16.178c-0,6.503 3.738,12.098 9.114,14.67l-2.662,16.6l15.488,-15.087l16.024,0c8.665,0 15.701,-7.248 15.701,-16.183c0,-8.93 -7.036,-16.178 -15.701,-16.178Z" style="fill:#fff;fill-rule:nonzero;"/><path d="M674.491,61.171l-21.66,0c-8.455,0 -15.307,7.061 -15.307,15.758c-0,6.331 3.639,11.779 8.876,14.284l-2.595,16.169l15.084,-14.694l15.602,-0c8.442,-0 15.293,-7.058 15.293,-15.759c-0,-8.697 -6.851,-15.758 -15.293,-15.758Z" style="fill:#fff;fill-rule:nonzero;"/><path d="M566.013,55.299l22.886,0c8.935,0 16.175,6.477 16.175,14.455c0,5.809 -3.844,10.805 -9.375,13.103l-0.876,18.022l-12.324,-16.668l-16.486,0c-8.92,0 -16.164,-6.477 -16.164,-14.457c0,-7.978 7.244,-14.455 16.164,-14.455Z" style="fill:#fff;fill-rule:nonzero;"/><path d="M707.681,293.392l-22.776,0c-8.892,0 -16.097,7.421 -16.097,16.565c0,6.658 3.827,12.388 9.33,15.018l-2.722,17.004l15.857,-15.451l16.408,0c8.873,0 16.077,-7.423 16.077,-16.571c-0,-9.144 -7.204,-16.565 -16.077,-16.565Z" style="fill:#fff;fill-rule:nonzero;"/><path d="M637.889,241.645l-23.35,-0c-9.114,-0 -16.503,7.61 -16.503,16.983c0,6.828 3.923,12.698 9.568,15.399l-2.794,17.429l16.26,-15.839l16.819,0c9.098,0 16.483,-7.61 16.483,-16.989c0,-9.373 -7.385,-16.983 -16.483,-16.983Z" style="fill:#fff;fill-rule:nonzero;"/><path d="M535.715,86.879l25.372,0c9.907,0 17.933,8.27 17.933,18.457c0,7.42 -4.262,13.799 -10.396,16.731l3.037,18.94l-17.667,-17.211l-18.279,0c-9.886,0 -17.912,-8.268 -17.912,-18.46c-0,-10.187 8.026,-18.457 17.912,-18.457Z" style="fill:#fff;fill-rule:nonzero;"/><path d="M552.086,25.494c-2.83,11.207 3.963,22.591 15.16,25.416c6.511,1.644 13.063,0.025 17.979,-3.798l23.971,9.484l-16.529,-20.841c0.002,-0.007 0.003,-0.008 0.005,-0.012c2.82,-11.206 -3.967,-22.576 -15.178,-25.411c-11.204,-2.83 -22.574,3.968 -25.408,15.162Z" style="fill:#fff;fill-rule:nonzero;"/></g><g transform="matrix(277.386,0,0,277.386,555.147,411.883)"></g><text x="-7.116px" y="411.883px" style="font-family:'CeraRoundBasic-Black', 'Cera Round Basic';font-weight:900;font-size:277.386px;fill:#fff;">imla</text></g></svg>