<?xml version="1.0" encoding="UTF-8" standalone="no"?><!DOCTYPE svg PUBLIC "-//W3C//DTD SVG 1.1//EN" "http://www.w3.org/Graphics/SVG/1.1/DTD/svg11.dtd"><svg width="100%" height="100%" viewBox="0 0 356 445" version="1.1" xmlns="http://www.w3.org/2000/svg" xmlns:xlink="http://www.w3.org/1999/xlink" xml:space="preserve" xmlns:serif="http://www.serif.com/" style="fill-rule:evenodd;clip-rule:evenodd;stroke-linejoin:round;stroke-miterlimit:2;"><g><path d="M284.099,245.671c5.559,5.893 5.294,15.18 -0.594,20.729c-3.42,3.229 -7.983,4.482 -12.297,3.82l-10.028,5.415l1.597,-9.824c-0.005,-0.003 -0.008,-0.003 -0.008,-0.007c-5.552,-5.893 -5.287,-15.171 0.606,-20.735c5.89,-5.555 15.169,-5.279 20.724,0.602Z" style="fill:#fcfcfb;fill-rule:nonzero;"/><path d="M65.194,6.22l21.063,-0c8.224,-0 14.886,6.861 14.886,15.318c0,6.161 -3.539,11.457 -8.628,13.892l2.519,15.721l-14.667,-14.286l-15.173,0c-8.206,0 -14.87,-6.865 -14.87,-15.327c-0,-8.457 6.664,-15.318 14.87,-15.318Z" style="fill:#fcfcfb;fill-rule:nonzero;"/><path d="M132.882,169.515l-13.562,-10.585c0.502,-3.137 0.37,-6.412 -0.532,-9.656c-3.43,-12.332 -16.452,-19.484 -29.068,-15.973c-12.613,3.51 -20.065,16.355 -16.635,28.687c3.43,12.326 16.45,19.486 29.061,15.974c5.226,-1.455 9.548,-4.526 12.592,-8.485l18.144,0.038Z" style="fill:#fcfcfb;fill-rule:nonzero;"/><path d="M171.987,178.753l-34.948,0c-3.019,0 -5.467,3.424 -5.467,7.64l-0,24.682c-0,4.229 2.448,7.642 5.467,7.642l22.815,-0l13.49,11.451l-2.936,-11.451l1.579,-0c3.016,-0 5.466,-3.413 5.466,-7.642l-0,-24.682c-0,-4.216 -2.45,-7.64 -5.466,-7.64Z" style="fill:#fcfcfb;fill-rule:nonzero;"/><path d="M214.988,408.278c-10.597,-2.427 -21.037,3.703 -23.326,13.693c-0.533,2.342 -0.567,4.69 -0.179,6.944l-7.01,13.528l13.643,-2.229c2.393,1.993 5.308,3.48 8.594,4.234c10.598,2.427 21.04,-3.704 23.329,-13.696c2.286,-9.987 -4.451,-20.05 -15.051,-22.474Z" style="fill:#fcfcfb;fill-rule:nonzero;"/><path d="M29.127,79.061c-14.309,0 -25.909,8.834 -25.909,19.734c0,2.553 0.646,4.993 1.806,7.235l-5.024,15.694l16.858,-5.547c3.655,1.499 7.828,2.347 12.269,2.347c14.315,0 25.92,-8.834 25.92,-19.729c0,-10.9 -11.605,-19.734 -25.92,-19.734Z" style="fill:#fcfcfb;fill-rule:nonzero;"/><path d="M256.647,108.655c-11.347,-0 -20.546,8.675 -20.546,19.372c0,2.51 0.512,4.904 1.434,7.108l-3.985,15.403l13.368,-5.446c2.895,1.471 6.21,2.306 9.729,2.306c11.355,0 20.555,-8.67 20.555,-19.371c-0,-10.697 -9.2,-19.372 -20.555,-19.372Z" style="fill:#fcfcfb;fill-rule:nonzero;"/><path d="M334.845,157.915c-11.347,0 -20.546,8.671 -20.546,19.369c0,2.511 0.512,4.906 1.432,7.108l-3.984,15.403l13.369,-5.444c2.897,1.469 6.21,2.306 9.729,2.306c11.356,-0 20.555,-8.674 20.555,-19.373c-0,-10.698 -9.199,-19.369 -20.555,-19.369Z" style="fill:#fcfcfb;fill-rule:nonzero;"/><path d="M169.102,97.044l-31.461,-0c-2.709,-0 -4.914,3.182 -4.914,7.125l-0,23.018c-0,3.932 2.205,7.119 4.914,7.119l20.526,-0l12.158,10.69l-2.642,-10.69l1.419,-0c2.719,-0 4.919,-3.187 4.919,-7.119l0,-23.018c0,-3.943 -2.2,-7.125 -4.919,-7.125Z" style="fill:#fcfcfb;fill-rule:nonzero;"/><path d="M229.933,189.562l-33.511,0c-2.889,0 -5.236,3.391 -5.236,7.591l-0,24.517c-0,4.191 2.347,7.583 5.236,7.583l21.862,0l14.361,6.369l-4.224,-6.369l1.512,0c2.893,0 5.24,-3.392 5.24,-7.583l0,-24.517c0,-4.2 -2.347,-7.591 -5.24,-7.591Z" style="fill:#fcfcfb;fill-rule:nonzero;"/><path d="M211.231,270.572l-31.735,-0c-2.733,-0 -4.956,3.21 -4.956,7.19l-0,23.214c-0,3.967 2.223,7.18 4.956,7.18l20.703,-0l12.265,10.779l-2.666,-10.779l1.433,-0c2.74,-0 4.96,-3.213 4.96,-7.18l0,-23.214c0,-3.98 -2.22,-7.19 -4.96,-7.19Z" style="fill:#fcfcfb;fill-rule:nonzero;"/><path d="M306.317,142.13l-31.735,0c-2.733,0 -4.955,3.21 -4.955,7.188l0,23.216c0,3.965 2.222,7.181 4.955,7.181l20.704,0l12.264,10.78l-2.665,-10.78l1.432,0c2.74,0 4.962,-3.216 4.962,-7.181l-0,-23.216c-0,-3.978 -2.222,-7.188 -4.962,-7.188Z" style="fill:#fcfcfb;fill-rule:nonzero;"/><path d="M181.483,313.602c-15.452,-0 -27.984,9.453 -27.984,21.128c0,2.434 0.552,4.773 1.556,6.95l-5.025,18.184l17.671,-6.746c4.068,1.746 8.768,2.744 13.782,2.744c15.462,-0 27.984,-9.455 27.984,-21.132c-0,-11.675 -12.522,-21.128 -27.984,-21.128Z" style="fill:#fcfcfb;fill-rule:nonzero;"/><path d="M206.216,99.364c-14.75,0 -26.708,9.025 -26.708,20.168c-0,2.323 0.527,4.554 1.484,6.632l-4.797,17.354l16.865,-6.434c3.884,1.663 8.369,2.614 13.156,2.614c14.757,0 26.708,-9.023 26.708,-20.166c0,-11.143 -11.951,-20.168 -26.708,-20.168Z" style="fill:#fcfcfb;fill-rule:nonzero;"/><path d="M2.812,139.318c-5.089,13.404 1.655,28.4 15.04,33.479c7.786,2.955 16.091,1.903 22.692,-2.104l30.479,3.102l-19.686,-16.033c0.003,-0.005 0.006,-0.008 0.009,-0.01c5.073,-13.405 -1.66,-28.381 -15.064,-33.477c-13.4,-5.087 -28.378,1.662 -33.47,15.043Z" style="fill:#fcfcfb;fill-rule:nonzero;"/><path d="M25.803,59.985c0.695,12.254 11.197,21.627 23.438,20.934c7.119,-0.403 13.244,-4.123 17.006,-9.559l25.655,-2.961l-21.72,-10.913c-0,-0.006 -0,-0.01 0.003,-0.013c-0.706,-12.249 -11.194,-21.613 -23.451,-20.924c-12.254,0.693 -21.615,11.193 -20.931,23.436Z" style="fill:#fcfcfb;fill-rule:nonzero;"/><path d="M261.8,162.674c3.689,6.737 1.216,15.195 -5.515,18.876c-3.913,2.142 -8.398,2.199 -12.197,0.557l-11.81,3.891l5.13,-9.957c-0.005,-0.005 -0.007,-0.007 -0.007,-0.008c-3.679,-6.737 -1.212,-15.187 5.528,-18.878c6.734,-3.689 15.183,-1.207 18.871,5.519Z" style="fill:#fcfcfb;fill-rule:nonzero;"/><path d="M265.121,90.583c0.269,8.233 -6.185,15.133 -14.407,15.399c-4.781,0.159 -9.1,-1.954 -11.94,-5.363l-12.514,1.15l9.055,-10.185c-0.003,-0.008 -0.003,-0.011 -0.003,-0.013c-0.264,-8.225 6.181,-15.116 14.416,-15.392c8.231,-0.274 15.115,6.185 15.393,14.404Z" style="fill:#fcfcfb;fill-rule:nonzero;"/><path d="M97.1,185.974c-6.663,6.294 -6.961,16.804 -0.67,23.462c3.653,3.867 8.729,5.577 13.646,5.105l11.462,9.149l-1.648,-13.584c0.01,-0.001 0.012,-0.001 0.012,-0.003c6.65,-6.301 6.95,-16.796 0.654,-23.467c-6.294,-6.661 -16.8,-6.947 -23.456,-0.662Z" style="fill:#fcfcfb;fill-rule:nonzero;"/><path d="M322.242,216.317c4.034,7.498 1.225,16.851 -6.26,20.874c-4.354,2.346 -9.327,2.372 -13.521,0.521l-17.708,4.188l10.347,-10.967c-0.003,-0.003 -0.004,-0.003 -0.004,-0.005c-4.026,-7.498 -1.222,-16.842 6.277,-20.879c7.495,-4.035 16.837,-1.218 20.869,6.268Z" style="fill:#fcfcfb;fill-rule:nonzero;"/><path d="M246.926,378.761c4.968,5.859 4.248,14.642 -1.605,19.6c-3.402,2.887 -7.783,3.843 -11.834,2.997l-9.849,8.781l2.083,-13.378c-0.005,-0.003 -0.008,-0.003 -0.008,-0.004c-4.96,-5.861 -4.242,-14.632 1.618,-19.604c5.856,-4.968 14.63,-4.239 19.595,1.608Z" style="fill:#fcfcfb;fill-rule:nonzero;"/><path d="M132.913,153.958c-1.909,9.429 4.183,18.633 13.604,20.54c5.479,1.112 10.863,-0.485 14.8,-3.862l13.898,0.409l-8.155,-10.143c0.003,-0.009 0.006,-0.009 0.006,-0.01c1.904,-9.428 -4.187,-18.623 -13.62,-20.54c-9.429,-1.915 -18.615,4.19 -20.533,13.606Z" style="fill:#fcfcfb;fill-rule:nonzero;"/><path d="M217.596,246.899c-5.706,9.142 -2.92,21.189 6.215,26.888c5.309,3.312 11.587,3.746 17.043,1.753l15.464,4.348l-5.619,-12.312c0.005,-0.007 0.008,-0.005 0.006,-0.01c5.698,-9.142 2.914,-21.177 -6.23,-26.888c-9.139,-5.705 -21.172,-2.906 -26.879,6.221Z" style="fill:#fcfcfb;fill-rule:nonzero;"/><path d="M173.936,370.342c-4.689,10.15 -0.256,22.182 9.881,26.855c5.895,2.72 12.41,2.349 17.765,-0.406l14.753,5.051l-5.657,-14.524c0.004,-0.005 0.004,-0.012 0.005,-0.015c4.673,-10.147 0.25,-22.164 -9.902,-26.853c-10.151,-4.685 -22.161,-0.245 -26.845,9.892Z" style="fill:#fcfcfb;fill-rule:nonzero;"/><path d="M154.75,74.72c-1.653,8.646 4.018,16.998 12.652,18.644c5.022,0.961 9.932,-0.556 13.497,-3.681l12.683,6.661l-7.529,-15.624c0.002,-0.008 0.002,-0.01 0.002,-0.011c1.647,-8.645 -4.016,-16.986 -12.662,-18.643c-8.644,-1.654 -16.982,4.017 -18.643,12.654Z" style="fill:#fcfcfb;fill-rule:nonzero;"/><path d="M51.718,133.691c4.321,7.666 14.047,10.377 21.703,6.059c4.452,-2.511 7.222,-6.84 7.923,-11.529l10.547,-7.035l-12.403,-3.14c-0.001,-0.003 -0.003,-0.005 -0.001,-0.008c-4.331,-7.663 -14.045,-10.372 -21.713,-6.051c-7.667,4.324 -10.368,14.042 -6.056,21.704Z" style="fill:#fcfcfb;fill-rule:nonzero;"/><path d="M91.902,203.042l-11.957,-8.249l-0,-9.871c-0,-3.491 -2.266,-6.337 -5.053,-6.337l-32.288,0c-2.784,0 -5.05,2.846 -5.05,6.337l0,20.467c0,3.512 2.266,6.342 5.05,6.342l32.288,-0c2.787,-0 5.053,-2.83 5.053,-6.342l-0,-2.347l11.957,0Z" style="fill:#fcfcfb;fill-rule:nonzero;"/><path d="M217.035,143.412l-22.244,-0c-8.682,-0 -15.72,7.248 -15.72,16.178c-0,6.503 3.736,12.097 9.112,14.67l-2.66,16.602l15.487,-15.087l16.025,-0c8.665,-0 15.703,-7.248 15.703,-16.185c0,-8.93 -7.038,-16.178 -15.703,-16.178Z" style="fill:#fcfcfb;fill-rule:nonzero;"/><path d="M279.219,186.649l-23.978,-0c-9.362,-0 -16.946,7.813 -16.946,17.437c-0,7.01 4.027,13.039 9.824,15.813l-2.869,17.897l16.696,-16.264l17.273,-0c9.343,-0 16.927,-7.813 16.927,-17.446c-0,-9.624 -7.584,-17.437 -16.927,-17.437Z" style="fill:#fcfcfb;fill-rule:nonzero;"/><path d="M248.096,334.861l-22.243,-0c-8.683,-0 -15.721,7.248 -15.721,16.178c0,6.503 3.738,12.097 9.114,14.669l-2.662,16.601l15.489,-15.087l16.023,-0c8.665,-0 15.702,-7.248 15.702,-16.183c-0,-8.93 -7.037,-16.178 -15.702,-16.178Z" style="fill:#fcfcfb;fill-rule:nonzero;"/><path d="M227.171,51.481l-21.66,-0c-8.455,-0 -15.307,7.06 -15.307,15.757c0,6.332 3.639,11.779 8.876,14.285l-2.595,16.168l15.084,-14.694l15.602,0c8.443,0 15.293,-7.057 15.293,-15.759c-0,-8.697 -6.85,-15.757 -15.293,-15.757Z" style="fill:#fcfcfb;fill-rule:nonzero;"/><path d="M118.693,45.609l22.887,-0c8.935,-0 16.175,6.477 16.175,14.454c-0,5.81 -3.845,10.806 -9.375,13.104l-0.876,18.021l-12.324,-16.667l-16.487,-0c-8.92,-0 -16.163,-6.477 -16.163,-14.458c-0,-7.977 7.243,-14.454 16.163,-14.454Z" style="fill:#fcfcfb;fill-rule:nonzero;"/><path d="M260.361,283.702l-22.776,-0c-8.892,-0 -16.096,7.421 -16.096,16.564c-0,6.658 3.826,12.388 9.329,15.019l-2.722,17.003l15.857,-15.45l16.408,-0c8.873,-0 16.077,-7.423 16.077,-16.572c0,-9.143 -7.204,-16.564 -16.077,-16.564Z" style="fill:#fcfcfb;fill-rule:nonzero;"/><path d="M190.569,231.954l-23.349,0c-9.115,0 -16.503,7.61 -16.503,16.984c-0,6.827 3.922,12.698 9.567,15.398l-2.793,17.43l16.259,-15.839l16.819,-0c9.098,-0 16.484,-7.611 16.484,-16.989c-0,-9.374 -7.386,-16.984 -16.484,-16.984Z" style="fill:#fcfcfb;fill-rule:nonzero;"/><path d="M88.395,77.189l25.373,-0c9.906,-0 17.933,8.269 17.933,18.457c-0,7.419 -4.262,13.798 -10.396,16.731l3.036,18.939l-17.667,-17.21l-18.279,-0c-9.885,-0 -17.912,-8.268 -17.912,-18.46c0,-10.188 8.027,-18.457 17.912,-18.457Z" style="fill:#fcfcfb;fill-rule:nonzero;"/><path d="M104.766,15.804c-2.83,11.206 3.963,22.591 15.16,25.416c6.511,1.644 13.063,0.024 17.979,-3.799l23.971,9.485l-16.529,-20.842c0.002,-0.006 0.004,-0.008 0.005,-0.011c2.82,-11.207 -3.966,-22.577 -15.178,-25.412c-11.203,-2.829 -22.573,3.969 -25.408,15.163Z" style="fill:#fcfcfb;fill-rule:nonzero;"/></g></svg>